<svg width="25" height="24" viewBox="0 0 25 24" fill="none" xmlns="http://www.w3.org/2000/svg">
<g clip-path="url(#clip0_78_22)">
<path d="M24.4546 14.8052V10.0134H21.4872L14.463 3.52308C14.5419 3.30075 14.5853 3.06174 14.5853 2.81266C14.5853 1.6378 13.6295 0.681976 12.4546 0.681976C11.2797 0.681976 10.3239 1.6378 10.3239 2.81266C10.3239 3.06171 10.3673 3.30075 10.4461 3.52308L3.42198 10.0134H0.45459V14.8052H1.2935L4.20834 23.3181H20.7008L23.6156 14.8052H24.4546V14.8052ZM16.3576 17.3536H13.2958V14.8284H16.607L16.3576 17.3536ZM11.6134 21.6356H8.97439L8.71769 19.0361H11.6134V21.6356ZM8.55157 17.3536L8.30222 14.8284H11.6134V17.3536H8.55157ZM12.9028 2.81266C12.9028 2.94258 12.8469 3.05941 12.7583 3.14133C12.6784 3.21526 12.5718 3.26086 12.4546 3.26086C12.3374 3.26086 12.2308 3.21526 12.1509 3.14133C12.0623 3.05939 12.0064 2.94258 12.0064 2.81266C12.0064 2.68274 12.0623 2.5659 12.1509 2.48398C12.2308 2.41005 12.3374 2.36445 12.4546 2.36445C12.5718 2.36445 12.6783 2.41005 12.7583 2.48398C12.8469 2.56593 12.9028 2.68274 12.9028 2.81266ZM11.5882 4.75854C11.8531 4.87695 12.1462 4.94336 12.4546 4.94336C12.763 4.94336 13.0561 4.87695 13.3209 4.75854L19.0081 10.0134H5.90115L11.5882 4.75854ZM2.13706 11.6959H22.7721V13.1227H2.13706V11.6959ZM6.61158 14.8284L6.86093 17.3536H3.94449L3.07984 14.8284H6.61158ZM5.41064 21.6356L4.52056 19.0361H7.02708L7.28375 21.6356H5.41064ZM13.2958 19.0361H16.1915L15.9348 21.6356H13.2958V19.0361ZM19.4985 21.6356H17.6254L17.8821 19.0361H20.3886L19.4985 21.6356ZM20.9647 17.3536H18.0482L18.2976 14.8284H21.8294L20.9647 17.3536Z" fill="#FF7158"/>
</g>
<defs>
<clipPath id="clip0_78_22">
<rect width="24" height="24" fill="white" transform="translate(0.45459)"/>
</clipPath>
</defs>
</svg>
