<svg width="176" height="69" viewBox="0 0 176 69" fill="none" xmlns="http://www.w3.org/2000/svg">
<path d="M30.093 51H24.849L9.07095 27.126V51H3.82695V18.984H9.07095L24.849 42.812V18.984H30.093V51ZM57.6333 19.03V23.308H49.1233V51H43.8793V23.308H35.3233V19.03H57.6333ZM68.1881 19.03V51H62.9441V19.03H68.1881Z" fill="#B9271D"/>
<path d="M89.9688 35C90.4062 34.125 90.8438 33.2604 91.2812 32.4062C91.7188 31.5312 92.1146 30.7188 92.4688 29.9688C92.8229 29.2188 93.125 28.5521 93.375 27.9688C93.625 27.3646 93.7708 26.8854 93.8125 26.5312C93.8542 26.1562 93.8229 25.8333 93.7188 25.5625C93.6146 25.2917 93.4375 25.0729 93.1875 24.9062C92.9583 24.7396 92.6771 24.6146 92.3438 24.5312C92.0312 24.4271 91.6771 24.3646 91.2812 24.3438C90.5938 24.3021 89.7708 24.3229 88.8125 24.4062C87.875 24.4688 86.9688 24.6042 86.0938 24.8125C85.2188 25 84.4583 25.2708 83.8125 25.625C83.1875 25.9792 82.8542 26.4167 82.8125 26.9375C82.7917 27.2292 82.8438 27.4896 82.9688 27.7188C83.0729 27.9062 83.2604 28.0833 83.5312 28.25C83.8229 28.4167 84.25 28.4792 84.8125 28.4375C84.9167 28.4375 85.0417 28.4271 85.1875 28.4062C85.3125 28.3854 85.4688 28.3646 85.6562 28.3438C85.8438 28.3021 86.0625 28.25 86.3125 28.1875L84.7812 30.25C84.4896 30.6667 84.1771 30.9167 83.8438 31C83.5104 31.0833 83.2083 31.1042 82.9375 31.0625C82.7917 31.0417 82.5 30.9688 82.0625 30.8438C81.6458 30.7188 81.2188 30.5312 80.7812 30.2812C80.3646 30.0312 80 29.6979 79.6875 29.2812C79.375 28.8438 79.25 28.3021 79.3125 27.6562C79.3958 26.9062 79.7188 26.2188 80.2812 25.5938C80.8438 24.9479 81.625 24.3958 82.625 23.9375C83.6458 23.4792 84.8542 23.125 86.25 22.875C87.6667 22.625 89.2604 22.5 91.0312 22.5C92.3646 22.5 93.4271 22.6458 94.2188 22.9375C95.0104 23.2083 95.5833 23.5729 95.9375 24.0312C96.3125 24.4688 96.4896 24.9896 96.4688 25.5938C96.4688 26.1771 96.3438 26.7812 96.0938 27.4062C95.9688 27.6979 95.7812 28.1042 95.5312 28.625C95.3021 29.125 95.0208 29.7188 94.6875 30.4062C94.3542 31.0729 94 31.8125 93.625 32.625C93.25 33.4375 92.875 34.2812 92.5 35.1562C93.0625 35.1979 93.5729 35.25 94.0312 35.3125C94.5104 35.375 94.8854 35.4271 95.1562 35.4688C95.4688 35.5521 95.5729 35.6875 95.4688 35.875C95.2812 36.25 95.0938 36.5312 94.9062 36.7188C94.7396 36.9062 94.5521 37.0417 94.3438 37.125C94.1354 37.1875 93.9062 37.2188 93.6562 37.2188C93.4062 37.1979 93.125 37.1771 92.8125 37.1562C92.625 37.1562 92.4375 37.1562 92.25 37.1562C92.0625 37.1354 91.8646 37.1146 91.6562 37.0938C91.2604 38.0312 90.875 38.9583 90.5 39.875C90.1458 40.7917 89.8125 41.6667 89.5 42.5C89.2083 43.3125 88.9479 44.0625 88.7188 44.75C88.4896 45.4375 88.3333 46.0104 88.25 46.4688C88.125 47.1146 88.0312 47.7188 87.9688 48.2812C87.9271 48.7604 87.9062 49.2604 87.9062 49.7812C87.9062 50.3021 87.9896 50.7188 88.1562 51.0312C87.7188 51.1562 87.3333 51.2604 87 51.3438C86.6875 51.4271 86.4167 51.4896 86.1875 51.5312C85.9375 51.5938 85.7292 51.6458 85.5625 51.6875C84.9792 51.8333 84.5625 51.8125 84.3125 51.625C84.0833 51.4583 84.0208 51.0417 84.125 50.375C84.1667 49.9167 84.2292 49.3958 84.3125 48.8125C84.4167 48.25 84.5625 47.6042 84.75 46.875C84.9583 46.1667 85.2188 45.375 85.5312 44.5C85.8646 43.6042 86.2812 42.6146 86.7812 41.5312C87.0729 40.9062 87.4062 40.2188 87.7812 39.4688C88.1562 38.6979 88.5521 37.875 88.9688 37C88.0521 37 87.0625 37.0625 86 37.1875C85.4167 37.2708 84.8438 37.3646 84.2812 37.4688C83.8021 37.5729 83.2812 37.6979 82.7188 37.8438C82.1771 37.9688 81.6667 38.1146 81.1875 38.2812C81.125 38.1146 81.0833 37.9479 81.0625 37.7812C81.0625 37.6146 81.0729 37.4583 81.0938 37.3125C81.1146 37.1667 81.1458 37.0208 81.1875 36.875C81.2292 36.7292 81.2917 36.5833 81.375 36.4375C81.5 36.1875 81.6979 35.875 81.9688 35.5C82.9479 35.375 83.8854 35.2812 84.7812 35.2188C85.6771 35.1562 86.4688 35.1042 87.1562 35.0625C87.9688 35.0208 88.7292 35 89.4375 35C89.5417 34.9792 89.625 34.9792 89.6875 35C89.7708 35 89.8646 35 89.9688 35ZM112.781 39.7812C112.49 40.1979 112.115 40.7188 111.656 41.3438C111.198 41.9479 110.719 42.5625 110.219 43.1875C109.74 43.7917 109.26 44.3542 108.781 44.875C108.323 45.375 107.938 45.7292 107.625 45.9375C107.417 46.0625 107.177 46.1667 106.906 46.25C106.635 46.3333 106.354 46.3854 106.062 46.4062C105.792 46.4271 105.531 46.4062 105.281 46.3438C105.031 46.3021 104.812 46.2188 104.625 46.0938C104.438 45.9479 104.281 45.7396 104.156 45.4688C104.052 45.2396 103.948 44.9375 103.844 44.5625C103.76 44.1875 103.729 43.7188 103.75 43.1562C103.25 43.9896 102.698 44.6354 102.094 45.0938C101.49 45.5312 100.917 45.8542 100.375 46.0625C99.75 46.2917 99.125 46.4271 98.5 46.4688C98.2083 46.4688 97.8958 46.3646 97.5625 46.1562C97.2292 45.9688 96.9479 45.6667 96.7188 45.25C96.4896 44.8125 96.3438 44.2604 96.2812 43.5938C96.2188 42.9062 96.3021 42.0938 96.5312 41.1562C96.8229 39.8854 97.2812 38.7292 97.9062 37.6875C98.5521 36.6458 99.25 35.7604 100 35.0312C100.75 34.2812 101.49 33.7188 102.219 33.3438C102.948 32.9688 103.552 32.8021 104.031 32.8438C104.594 32.9479 105.052 33.1146 105.406 33.3438C105.698 33.5521 105.885 33.8646 105.969 34.2812C106.073 34.6771 105.906 35.2083 105.469 35.875C105.76 35.8125 106 35.7708 106.188 35.75C106.396 35.7292 106.552 35.7188 106.656 35.7188C106.781 35.7188 106.865 35.7292 106.906 35.75C106.927 35.7917 106.938 35.8854 106.938 36.0312C106.938 36.1562 106.906 36.3958 106.844 36.75C106.781 37.1042 106.688 37.5833 106.562 38.1875C106.438 38.7917 106.271 39.5729 106.062 40.5312C106.021 40.7188 105.979 40.8958 105.938 41.0625C105.917 41.2083 105.885 41.3646 105.844 41.5312C105.823 41.6771 105.792 41.8542 105.75 42.0625C105.708 42.2708 105.656 42.5312 105.594 42.8438C105.573 43.0312 105.562 43.2396 105.562 43.4688C105.583 43.6771 105.625 43.875 105.688 44.0625C105.75 44.25 105.844 44.4062 105.969 44.5312C106.115 44.6354 106.312 44.6875 106.562 44.6875C106.771 44.6875 107.042 44.5625 107.375 44.3125C107.708 44.0417 108.062 43.7083 108.438 43.3125C108.812 42.8958 109.198 42.4479 109.594 41.9688C110.01 41.4688 110.396 40.9896 110.75 40.5312C111.104 40.0729 111.417 39.6667 111.688 39.3125C111.979 38.9583 112.188 38.6979 112.312 38.5312C112.479 38.3438 112.646 38.2396 112.812 38.2188C112.979 38.1771 113.104 38.2188 113.188 38.3438C113.271 38.4688 113.281 38.6562 113.219 38.9062C113.177 39.1562 113.031 39.4479 112.781 39.7812ZM103.625 41.1562C103.729 40.7396 103.854 40.25 104 39.6875C104.146 39.125 104.271 38.5833 104.375 38.0625C104.479 37.5417 104.552 37.1146 104.594 36.7812C104.656 36.4271 104.646 36.2604 104.562 36.2812C104.458 36.3021 104.344 36.3333 104.219 36.375C104.115 36.4167 103.979 36.4479 103.812 36.4688C103.646 36.4896 103.479 36.5208 103.312 36.5625C103.479 36.2292 103.573 35.9583 103.594 35.75C103.635 35.5208 103.646 35.3438 103.625 35.2188C103.604 35.0729 103.562 34.9583 103.5 34.875C103.271 34.6875 102.865 34.8438 102.281 35.3438C101.719 35.8229 101.062 36.7188 100.312 38.0312C100 38.5729 99.75 39.1562 99.5625 39.7812C99.375 40.3854 99.2396 40.9583 99.1562 41.5C99.0938 42.0417 99.0833 42.5208 99.125 42.9375C99.1667 43.3333 99.25 43.5938 99.375 43.7188C99.6042 43.9479 99.8646 44.0625 100.156 44.0625C100.448 44.0417 100.74 43.9583 101.031 43.8125C101.344 43.6458 101.646 43.4375 101.938 43.1875C102.25 42.9375 102.521 42.6771 102.75 42.4062C103 42.1354 103.198 41.8854 103.344 41.6562C103.51 41.4271 103.604 41.2604 103.625 41.1562ZM115.094 44.9375C115.219 45.0208 115.375 45.0625 115.562 45.0625C115.771 45.0625 115.969 45.0208 116.156 44.9375C116.365 44.8542 116.552 44.7396 116.719 44.5938C116.906 44.4479 117.042 44.2604 117.125 44.0312C117.208 43.8021 117.208 43.4792 117.125 43.0625C117.042 42.625 116.906 42.1667 116.719 41.6875C116.552 41.1875 116.365 40.6875 116.156 40.1875C115.948 39.6875 115.771 39.2292 115.625 38.8125C115.5 38.5 115.396 38.2083 115.312 37.9375C115.229 37.7083 115.146 37.4896 115.062 37.2812C115 37.0521 114.948 36.8958 114.906 36.8125C114.802 36.9792 114.615 37.25 114.344 37.625C114.094 38 113.812 38.3958 113.5 38.8125C113.208 39.2083 112.927 39.5833 112.656 39.9375C112.385 40.2708 112.198 40.5 112.094 40.625C111.927 40.8125 111.76 40.9271 111.594 40.9688C111.448 40.9896 111.323 40.9583 111.219 40.875C111.115 40.7708 111.052 40.6354 111.031 40.4688C111.031 40.2812 111.115 40.0625 111.281 39.8125C111.406 39.6458 111.594 39.3854 111.844 39.0312C112.094 38.6562 112.344 38.2812 112.594 37.9062C112.844 37.5104 113.073 37.1667 113.281 36.875C113.49 36.5625 113.604 36.375 113.625 36.3125C113.667 36.1458 113.604 35.9271 113.438 35.6562C113.292 35.3854 113.271 35.0729 113.375 34.7188C113.458 34.4271 113.646 34.0938 113.938 33.7188C114.229 33.3229 114.573 32.9688 114.969 32.6562C115.365 32.3438 115.771 32.1146 116.188 31.9688C116.604 31.8021 116.979 31.8021 117.312 31.9688C117.583 32.1354 117.802 32.3229 117.969 32.5312C118.135 32.7188 118.198 32.9167 118.156 33.125C118.115 33.2292 118.052 33.3646 117.969 33.5312C117.885 33.6979 117.76 33.9062 117.594 34.1562C117.427 34.3854 117.188 34.6875 116.875 35.0625C116.938 35.5417 117.021 35.9792 117.125 36.375C117.25 36.7708 117.365 37.1146 117.469 37.4062C117.594 37.7604 117.729 38.0833 117.875 38.375C118.062 38.75 118.26 39.1354 118.469 39.5312C118.677 39.9271 118.865 40.3229 119.031 40.7188C119.198 41.0938 119.333 41.4479 119.438 41.7812C119.542 42.1146 119.573 42.3958 119.531 42.625C119.469 42.9792 119.281 43.4062 118.969 43.9062C118.677 44.4062 118.302 44.8958 117.844 45.375C117.406 45.8333 116.896 46.2292 116.312 46.5625C115.75 46.8958 115.156 47.0625 114.531 47.0625C114.094 47.0625 113.667 46.9271 113.25 46.6562C112.854 46.3854 112.51 46.0729 112.219 45.7188C111.948 45.3438 111.74 44.9792 111.594 44.625C111.469 44.2708 111.458 44 111.562 43.8125C111.688 43.5625 111.802 43.3646 111.906 43.2188C112.01 43.0729 112.167 42.9062 112.375 42.7188C112.458 42.6562 112.562 42.5833 112.688 42.5C112.792 42.4375 112.938 42.375 113.125 42.3125C113.312 42.25 113.531 42.1771 113.781 42.0938C113.99 42.7396 114.177 43.25 114.344 43.625C114.51 43.9792 114.646 44.2604 114.75 44.4688C114.875 44.6979 114.99 44.8542 115.094 44.9375ZM138.062 39.125C138.208 38.9583 138.354 38.875 138.5 38.875C138.667 38.8542 138.792 38.8958 138.875 39C138.979 39.0833 139.021 39.2188 139 39.4062C139 39.5938 138.917 39.8021 138.75 40.0312C138.354 40.5729 137.896 41.1354 137.375 41.7188C136.854 42.2812 136.292 42.8333 135.688 43.375C135.104 43.9167 134.51 44.4271 133.906 44.9062C133.302 45.3854 132.719 45.7812 132.156 46.0938C131.531 46.4479 131 46.625 130.562 46.625C130.146 46.625 129.729 46.3542 129.312 45.8125C128.938 45.3333 128.75 44.8229 128.75 44.2812C128.771 43.7188 128.896 43.0208 129.125 42.1875C129.271 41.6667 129.469 41.0521 129.719 40.3438C129.99 39.6146 130.198 38.9167 130.344 38.25C130.51 37.5833 130.562 37.0208 130.5 36.5625C130.438 36.0833 130.167 35.8438 129.688 35.8438C129.354 35.8438 128.99 35.9583 128.594 36.1875C128.219 36.4167 127.833 36.7188 127.438 37.0938C127.062 37.4479 126.698 37.8542 126.344 38.3125C125.99 38.7708 125.677 39.2188 125.406 39.6562C125.24 40.4688 125.073 41.2708 124.906 42.0625C124.76 42.7292 124.604 43.4583 124.438 44.25C124.292 45.0208 124.146 45.7083 124 46.3125C123.875 46.4167 123.74 46.4896 123.594 46.5312C123.448 46.5729 123.312 46.5938 123.188 46.5938C123.042 46.5938 122.896 46.5833 122.75 46.5625C122.583 46.5208 122.427 46.4583 122.281 46.375C122.156 46.2917 122.031 46.1771 121.906 46.0312C121.781 45.9062 121.688 45.7292 121.625 45.5C122.562 41.6458 123.302 38.5521 123.844 36.2188C124.385 33.8854 124.802 32.1042 125.094 30.875C125.427 29.4167 125.656 28.4062 125.781 27.8438C125.844 27.4479 125.896 27.0625 125.938 26.6875C125.979 26.3542 126 26.0104 126 25.6562C126 25.3021 125.969 24.9792 125.906 24.6875C126.073 24.5833 126.25 24.5 126.438 24.4375C126.646 24.375 126.844 24.3229 127.031 24.2812C127.26 24.2188 127.49 24.1667 127.719 24.125C127.948 24.0833 128.156 24.0625 128.344 24.0625C128.51 24.0625 128.667 24.0833 128.812 24.125C128.958 24.1458 129.052 24.2083 129.094 24.3125C129.219 24.4167 129.271 24.625 129.25 24.9375C129.25 25.25 129.229 25.5729 129.188 25.9062C129.104 26.3021 129.01 26.7292 128.906 27.1875C128.469 28.875 127.979 30.5208 127.438 32.125C126.896 33.7083 126.396 35.4062 125.938 37.2188C126.208 36.8021 126.531 36.375 126.906 35.9375C127.281 35.5 127.688 35.1042 128.125 34.75C128.583 34.375 129.062 34.0729 129.562 33.8438C130.062 33.5938 130.594 33.4688 131.156 33.4688C131.448 33.4688 131.719 33.5208 131.969 33.625C132.24 33.7083 132.469 33.8646 132.656 34.0938C132.865 34.3021 133.021 34.5938 133.125 34.9688C133.229 35.3229 133.271 35.7708 133.25 36.3125C133.25 36.6458 133.208 36.9896 133.125 37.3438C133.062 37.6979 132.969 38.0938 132.844 38.5312C132.719 38.9479 132.552 39.4167 132.344 39.9375C132.156 40.4583 131.927 41.0625 131.656 41.75C131.469 42.2292 131.323 42.6354 131.219 42.9688C131.115 43.3021 131.135 43.5938 131.281 43.8438C131.469 44.1771 131.833 44.2604 132.375 44.0938C132.938 43.9062 133.771 43.3646 134.875 42.4688C135.125 42.2604 135.406 42 135.719 41.6875C136.031 41.375 136.333 41.0625 136.625 40.75C136.917 40.4167 137.188 40.1042 137.438 39.8125C137.688 39.5208 137.896 39.2917 138.062 39.125ZM143.719 27.5938C143.656 27.8229 143.531 28.0521 143.344 28.2812C143.177 28.4896 142.979 28.6667 142.75 28.8125C142.542 28.9375 142.323 29.0208 142.094 29.0625C141.865 29.1042 141.677 29.0625 141.531 28.9375C141.094 28.6042 140.865 28.25 140.844 27.875C140.823 27.4792 140.917 27.1146 141.125 26.7812C141.333 26.4271 141.594 26.1354 141.906 25.9062C142.219 25.6562 142.49 25.5104 142.719 25.4688C142.948 25.4271 143.135 25.4792 143.281 25.625C143.448 25.75 143.573 25.9271 143.656 26.1562C143.74 26.3646 143.781 26.6042 143.781 26.875C143.802 27.1458 143.781 27.3854 143.719 27.5938ZM139.406 34.25C139.51 34.125 139.708 34.0208 140 33.9375C140.292 33.8542 140.594 33.7917 140.906 33.75C141.219 33.6875 141.5 33.6562 141.75 33.6562C142.021 33.6354 142.177 33.6354 142.219 33.6562C142.24 33.6771 142.188 33.8958 142.062 34.3125C141.938 34.7292 141.781 35.2188 141.594 35.7812C141.406 36.3438 141.208 36.9271 141 37.5312C140.792 38.1146 140.635 38.5938 140.531 38.9688C140.427 39.3438 140.302 39.7708 140.156 40.25C140.01 40.7083 139.875 41.1667 139.75 41.625C139.646 42.0625 139.573 42.4792 139.531 42.875C139.49 43.2708 139.521 43.5729 139.625 43.7812C139.729 44.0312 139.844 44.2083 139.969 44.3125C140.094 44.3958 140.229 44.4375 140.375 44.4375C140.792 44.4375 141.312 44.2083 141.938 43.75C142.583 43.2917 143.229 42.75 143.875 42.125C144.542 41.4792 145.156 40.8333 145.719 40.1875C146.281 39.5208 146.698 38.9896 146.969 38.5938C147.135 38.3854 147.302 38.25 147.469 38.1875C147.656 38.125 147.802 38.1354 147.906 38.2188C148.031 38.3021 148.094 38.4375 148.094 38.625C148.115 38.8125 148.052 39.0312 147.906 39.2812C147.573 39.8646 147.083 40.5625 146.438 41.375C145.792 42.1667 145.104 42.9375 144.375 43.6875C143.646 44.4167 142.927 45.0417 142.219 45.5625C141.531 46.0833 140.969 46.3542 140.531 46.375C140.177 46.3958 139.823 46.3333 139.469 46.1875C139.135 46.0625 138.823 45.8854 138.531 45.6562C138.26 45.4062 138.031 45.125 137.844 44.8125C137.656 44.4792 137.552 44.1354 137.531 43.7812C137.469 43.2604 137.469 42.5521 137.531 41.6562C137.594 40.7396 137.708 39.8125 137.875 38.875C138.042 37.9167 138.25 37.0104 138.5 36.1562C138.771 35.3021 139.073 34.6667 139.406 34.25ZM154.875 41.0312C154.667 41.8229 154.385 42.5625 154.031 43.25C153.677 43.9375 153.25 44.5312 152.75 45.0312C152.271 45.5312 151.719 45.9167 151.094 46.1875C150.49 46.4792 149.823 46.625 149.094 46.625C148.24 46.625 147.562 46.4375 147.062 46.0625C146.583 45.7083 146.219 45.2604 145.969 44.7188C145.74 44.1771 145.604 43.5833 145.562 42.9375C145.5 42.2917 145.469 41.6875 145.469 41.125C145.469 40.7292 145.521 40.2917 145.625 39.8125C145.708 39.3333 145.833 38.8438 146 38.3438C146.167 37.8438 146.375 37.3438 146.625 36.8438C146.896 36.3438 147.208 35.8854 147.562 35.4688C147.688 35.1146 147.875 34.8021 148.125 34.5312C148.396 34.2604 148.698 34.0417 149.031 33.875C149.385 33.6875 149.76 33.5521 150.156 33.4688C150.552 33.3646 150.938 33.3125 151.312 33.3125C151.375 33.3125 151.427 33.3229 151.469 33.3438C151.531 33.3646 151.594 33.3854 151.656 33.4062C151.927 33.4271 152.26 33.5312 152.656 33.7188C153.073 33.9062 153.469 34.1875 153.844 34.5625C154.24 34.9375 154.573 35.4167 154.844 36C155.115 36.5625 155.25 37.25 155.25 38.0625C155.25 38.2292 155.24 38.4375 155.219 38.6875C155.198 38.9167 155.177 39.1146 155.156 39.2812C155.635 39.0938 156.135 38.8646 156.656 38.5938C157.177 38.3229 157.677 38.0417 158.156 37.75C158.656 37.4375 159.115 37.125 159.531 36.8125C159.948 36.5 160.281 36.2188 160.531 35.9688C160.74 35.7812 160.917 35.6771 161.062 35.6562C161.208 35.6354 161.312 35.6771 161.375 35.7812C161.438 35.8854 161.448 36.0312 161.406 36.2188C161.365 36.4062 161.25 36.6146 161.062 36.8438C160.958 36.9688 160.688 37.2188 160.25 37.5938C159.833 37.9688 159.333 38.375 158.75 38.8125C158.167 39.25 157.531 39.6771 156.844 40.0938C156.156 40.5104 155.5 40.8229 154.875 41.0312ZM149.594 36.2812C149.531 36.4688 149.5 36.6667 149.5 36.875C149.5 37.2083 149.521 37.5625 149.562 37.9375C149.604 38.2917 149.708 38.6146 149.875 38.9062C150.042 39.1979 150.302 39.4479 150.656 39.6562C151.031 39.8438 151.542 39.9375 152.188 39.9375C152.292 39.9375 152.396 39.9375 152.5 39.9375C152.604 39.9167 152.708 39.8958 152.812 39.875C152.875 39.6042 152.927 39.3646 152.969 39.1562C153.031 38.9271 153.062 38.7292 153.062 38.5625C153.104 38.1667 153.104 37.7604 153.062 37.3438C153.021 36.9271 152.938 36.5521 152.812 36.2188C152.708 35.8646 152.562 35.5833 152.375 35.375C152.208 35.1458 152 35.0312 151.75 35.0312C151.354 35.0312 150.969 35.1458 150.594 35.375C150.24 35.5833 149.906 35.8854 149.594 36.2812ZM147.594 41.7812C147.594 42.1562 147.615 42.5312 147.656 42.9062C147.698 43.2604 147.781 43.5833 147.906 43.875C148.031 44.1458 148.198 44.375 148.406 44.5625C148.615 44.7292 148.885 44.8125 149.219 44.8125C149.594 44.8125 149.938 44.7292 150.25 44.5625C150.562 44.375 150.844 44.1458 151.094 43.875C151.344 43.5833 151.562 43.2604 151.75 42.9062C151.958 42.5312 152.135 42.1458 152.281 41.75C152.135 41.7708 151.99 41.7917 151.844 41.8125C151.719 41.8125 151.573 41.8125 151.406 41.8125C150.615 41.8125 149.927 41.5833 149.344 41.125C148.781 40.6458 148.344 40.0417 148.031 39.3125C147.906 39.75 147.802 40.1771 147.719 40.5938C147.635 41.0104 147.594 41.4062 147.594 41.7812ZM167.5 46.7812C167.021 46.7812 166.604 46.6875 166.25 46.5C165.917 46.3333 165.646 46.1042 165.438 45.8125C165.229 45.5208 165.094 45.1875 165.031 44.8125C164.969 44.4167 164.99 44 165.094 43.5625C165.156 43.2708 165.26 42.8854 165.406 42.4062C165.552 41.9062 165.698 41.375 165.844 40.8125C166.01 40.2292 166.156 39.6562 166.281 39.0938C166.427 38.5104 166.521 37.9896 166.562 37.5312C166.604 37.0521 166.583 36.6667 166.5 36.375C166.417 36.0625 166.24 35.9062 165.969 35.9062C165.635 35.9062 165.292 36.0208 164.938 36.25C164.583 36.4583 164.219 36.75 163.844 37.125C163.49 37.5 163.125 37.9375 162.75 38.4375C162.396 38.9167 162.042 39.4167 161.688 39.9375C161.5 40.6458 161.344 41.2708 161.219 41.8125C161.094 42.3333 160.979 42.8125 160.875 43.25C160.792 43.6667 160.708 44.0417 160.625 44.375C160.542 44.6875 160.469 44.9896 160.406 45.2812C160.344 45.4896 160.156 45.6979 159.844 45.9062C159.531 46.0938 159.198 46.25 158.844 46.375C158.49 46.5 158.188 46.5625 157.938 46.5625C157.667 46.5625 157.552 46.4688 157.594 46.2812C157.615 46.1562 157.688 45.875 157.812 45.4375C157.917 45 158.052 44.4896 158.219 43.9062C158.365 43.3021 158.521 42.6667 158.688 42C158.854 41.3333 159.01 40.6979 159.156 40.0938C159.26 39.6146 159.375 39.0833 159.5 38.5C159.604 38 159.729 37.4167 159.875 36.75C160.042 36.0833 160.229 35.3542 160.438 34.5625C160.583 34.4375 160.729 34.3438 160.875 34.2812C161.042 34.1979 161.208 34.1354 161.375 34.0938C161.542 34.0312 161.719 33.9896 161.906 33.9688C162.073 33.9688 162.24 33.9792 162.406 34C162.552 34.0208 162.698 34.0625 162.844 34.125C163.01 34.1667 163.156 34.2396 163.281 34.3438C163.219 34.4896 163.146 34.6979 163.062 34.9688C162.979 35.2188 162.896 35.4896 162.812 35.7812C162.729 36.1146 162.625 36.4583 162.5 36.8125C162.771 36.4375 163.073 36.0625 163.406 35.6875C163.76 35.2917 164.135 34.9375 164.531 34.625C164.948 34.3125 165.385 34.0625 165.844 33.875C166.302 33.6667 166.771 33.5625 167.25 33.5625C167.646 33.5625 168 33.6771 168.312 33.9062C168.625 34.1354 168.865 34.4583 169.031 34.875C169.219 35.2708 169.323 35.75 169.344 36.3125C169.385 36.875 169.312 37.4896 169.125 38.1562L168.781 39.5312C168.677 39.9688 168.542 40.4896 168.375 41.0938C168.229 41.6771 168.042 42.3229 167.812 43.0312C167.688 43.4896 167.635 43.8854 167.656 44.2188C167.698 44.5521 167.906 44.7188 168.281 44.7188C168.656 44.7188 169.125 44.4896 169.688 44.0312C170.271 43.5729 170.854 43.0208 171.438 42.375C172.021 41.7292 172.573 41.0729 173.094 40.4062C173.615 39.7188 174.01 39.1667 174.281 38.75C174.469 38.4792 174.646 38.3021 174.812 38.2188C174.979 38.1354 175.104 38.125 175.188 38.1875C175.292 38.25 175.344 38.3958 175.344 38.625C175.344 38.8333 175.26 39.1042 175.094 39.4375C174.948 39.7292 174.719 40.1146 174.406 40.5938C174.115 41.0729 173.76 41.5833 173.344 42.125C172.927 42.6667 172.479 43.2188 172 43.7812C171.521 44.3229 171.021 44.8229 170.5 45.2812C169.979 45.7188 169.458 46.0729 168.938 46.3438C168.438 46.6354 167.958 46.7812 167.5 46.7812Z" fill="#B9271D"/>
</svg>
