<svg width="31" height="31" viewBox="0 0 31 31" fill="none" xmlns="http://www.w3.org/2000/svg">
<path d="M26.3499 4.51058C24.9289 3.07517 23.2363 1.93707 21.3708 1.16267C19.5053 0.388264 17.5043 -0.00694416 15.4845 9.23327e-05C7.02148 9.23327e-05 0.124 6.89757 0.124 15.3605C0.124 18.073 0.836998 20.708 2.16999 23.033L0 31L8.13748 28.861C10.385 30.0855 12.9115 30.7365 15.4845 30.7365C23.9474 30.7365 30.8449 23.839 30.8449 15.376C30.8449 11.2686 29.2484 7.40907 26.3499 4.51058ZM15.4845 28.1325C13.1905 28.1325 10.943 27.5125 8.97447 26.35L8.50947 26.071L3.67349 27.342L4.95999 22.63L4.64999 22.1495C3.3755 20.1143 2.69876 17.7619 2.69699 15.3605C2.69699 8.32357 8.43197 2.58858 15.469 2.58858C18.8789 2.58858 22.0874 3.92158 24.4899 6.33957C25.6795 7.52371 26.6223 8.93219 27.2635 10.4834C27.9047 12.0345 28.2317 13.6976 28.2254 15.376C28.2564 22.413 22.5214 28.1325 15.4845 28.1325ZM22.4904 18.5845C22.1029 18.3985 20.2119 17.4685 19.8709 17.329C19.5144 17.205 19.2664 17.143 19.0029 17.515C18.7394 17.9025 18.0109 18.7705 17.7939 19.0185C17.5769 19.282 17.3444 19.313 16.9569 19.1115C16.5695 18.9255 15.3295 18.507 13.8725 17.205C12.7255 16.182 11.966 14.9265 11.7335 14.539C11.5165 14.1516 11.7025 13.9501 11.904 13.7486C12.0745 13.5781 12.2915 13.2991 12.4775 13.0821C12.6635 12.8651 12.741 12.6946 12.865 12.4466C12.989 12.1831 12.927 11.9661 12.834 11.7801C12.741 11.5941 11.966 9.70306 11.656 8.92807C11.346 8.18407 11.0205 8.27707 10.788 8.26157H10.044C9.78047 8.26157 9.37747 8.35457 9.02097 8.74207C8.67997 9.12957 7.68798 10.0596 7.68798 11.9506C7.68798 13.8416 9.06747 15.6705 9.25347 15.9185C9.43947 16.182 11.966 20.057 15.81 21.7155C16.7245 22.1185 17.4374 22.351 17.9954 22.5215C18.9099 22.816 19.7469 22.7695 20.4134 22.6765C21.1574 22.568 22.6919 21.7465 23.0019 20.8475C23.3274 19.9485 23.3274 19.189 23.2189 19.0185C23.1104 18.848 22.8779 18.7705 22.4904 18.5845Z" fill="#979797"/>
</svg>
