<svg width="76" height="76" viewBox="0 0 76 76" fill="none" xmlns="http://www.w3.org/2000/svg">
<path d="M1.6146 37.6697C1.61282 44.0763 3.28682 50.3319 6.46991 55.8457L1.31018 74.6847L20.5896 69.6296C25.922 72.5326 31.8966 74.0537 37.9679 74.054H37.9839C58.0267 74.054 74.342 57.7447 74.3505 37.6983C74.3544 27.9845 70.5749 18.8502 63.708 11.978C56.8424 5.10647 47.7114 1.32017 37.9824 1.31573C17.9373 1.31573 1.62317 17.6242 1.61489 37.6697" fill="url(#paint0_linear_40779_23)"/>
<path d="M0.316239 37.6579C0.314171 44.2951 2.04817 50.7744 5.34474 56.4857L0 76L19.9707 70.7637C25.4732 73.7639 31.6686 75.3456 37.9727 75.348H37.9889C58.7508 75.348 75.6521 58.452 75.661 37.688C75.6645 27.6251 71.7491 18.1625 64.637 11.0441C57.5239 3.92669 48.0663 0.00413771 37.9889 0C17.2235 0 0.324515 16.8937 0.316239 37.6579ZM12.2092 55.5021L11.4635 54.3184C8.32892 49.3342 6.67442 43.5745 6.67679 37.6603C6.68359 20.4016 20.7293 6.36025 38.0007 6.36025C46.3648 6.3638 54.2253 9.62432 60.1375 15.5401C66.0494 21.4564 69.3025 29.321 69.3005 37.6857C69.2928 54.9444 55.2467 68.9875 37.9889 68.9875H37.9765C32.3572 68.9845 26.8461 67.4754 22.0398 64.6237L20.896 63.9454L9.04504 67.0525L12.2092 55.5018V55.5021Z" fill="url(#paint1_linear_40779_23)"/>
<path d="M28.5733 21.9145C27.8681 20.3472 27.1259 20.3156 26.4553 20.2881C25.9062 20.2644 25.2785 20.2662 24.6513 20.2662C24.0235 20.2662 23.0036 20.5023 22.1415 21.4437C21.2785 22.3859 18.8467 24.6628 18.8467 29.2938C18.8467 33.9251 22.2198 38.4006 22.69 39.0292C23.1608 39.6567 29.2019 49.4643 38.7695 53.2373C46.721 56.3728 48.3391 55.7491 50.0648 55.5919C51.7908 55.4353 55.6342 53.3156 56.4183 51.1176C57.203 48.9199 57.203 47.036 56.9677 46.6423C56.7324 46.2501 56.1047 46.0146 55.1634 45.5441C54.2217 45.0733 49.594 42.796 48.7313 42.4819C47.8683 42.168 47.2408 42.0114 46.6131 42.9539C45.9853 43.8949 44.1828 46.0146 43.6333 46.6423C43.0845 47.2716 42.5351 47.3499 41.594 46.8791C40.6521 46.4068 37.6207 45.414 34.0241 42.2076C31.2258 39.7126 29.3367 36.6314 28.7875 35.6889C28.2384 34.7479 28.7287 34.2378 29.2007 33.7687C29.6236 33.347 30.1423 32.6696 30.6134 32.1202C31.0828 31.5704 31.2394 31.1782 31.5533 30.5505C31.8675 29.9221 31.7102 29.3724 31.4753 28.9016C31.2394 28.4308 29.4103 23.7756 28.5733 21.9145Z" fill="white"/>
<defs>
<linearGradient id="paint0_linear_40779_23" x1="37.8304" y1="74.6847" x2="37.8304" y2="1.31573" gradientUnits="userSpaceOnUse">
<stop stop-color="#1FAF38"/>
<stop offset="1" stop-color="#60D669"/>
</linearGradient>
<linearGradient id="paint1_linear_40779_23" x1="37.8305" y1="76" x2="37.8305" y2="0" gradientUnits="userSpaceOnUse">
<stop stop-color="#F9F9F9"/>
<stop offset="1" stop-color="white"/>
</linearGradient>
</defs>
</svg>
